PathFileType	4	(X/Y/Z)	C:/Users/opensim2020/Desktop/walking_exp_matlab/subject03_walking09_straight_04.trc																																																																																																																																											
DataRate	CameraRate	NumFrames	NumMarkers	Units	OrigDataRate	OrigDataStartFrame	OrigNumFrames																																																																																																																																							
100	100	4	47	mm	100	3965	353																																																																																																																																							
Frame#	Time	LFHD			RFHD			LBHD			RBHD			C7			T10			CLAV			STRN			RBAK			LSHO			LUPA			LELB			LFRM			LWRA			LWRB			LFIN			RSHO			RUPA			RELB			RFRM			RWRA			RWRB			RFIN			LASI			RASI			LPSI			RPSI			LTHI			LKNE			LTIB			LANK			LHEE			LTOE			RTHI			RKNE			RTIB			RANK			RHEE			RTOE			*39			*40			*41			*42			*43			*44			*45			*46		
		X1	Y1	Z1	X2	Y2	Z2	X3	Y3	Z3	X4	Y4	Z4	X5	Y5	Z5	X6	Y6	Z6	X7	Y7	Z7	X8	Y8	Z8	X9	Y9	Z9	X10	Y10	Z10	X11	Y11	Z11	X12	Y12	Z12	X13	Y13	Z13	X14	Y14	Z14	X15	Y15	Z15	X16	Y16	Z16	X17	Y17	Z17	X18	Y18	Z18	X19	Y19	Z19	X20	Y20	Z20	X21	Y21	Z21	X22	Y22	Z22	X23	Y23	Z23	X24	Y24	Z24	X25	Y25	Z25	X26	Y26	Z26	X27	Y27	Z27	X28	Y28	Z28	X29	Y29	Z29	X30	Y30	Z30	X31	Y31	Z31	X32	Y32	Z32	X33	Y33	Z33	X34	Y34	Z34	X35	Y35	Z35	X36	Y36	Z36	X37	Y37	Z37	X38	Y38	Z38	X39	Y39	Z39	X40	Y40	Z40	X41	Y41	Z41	X42	Y42	Z42	X43	Y43	Z43	X44	Y44	Z44	X45	Y45	Z45	X46	Y46	Z46	X47	Y47	Z47
																																																																																																																																														
221	2.2	211.70142	1622.60071	-1494.29749	192.22517	1621.38684	-1362.37622	82.84995	1583.51794	-1509.28711	68.67786	1582.11609	-1378.69348	41.93475	1419.37524	-1455.0426	10.28803	1104.64526	-1455.90601	164.87137	1342.92407	-1449.29321	210.3992	1179.36938	-1459.23938	-12.74569	1240.47144	-1363.31433	127.13721	1383.70007	-1605.39209	130.20309	1188.26514	-1678.11414	145.40361	1065.4845	-1688.59363	191.83224	944.2038	-1682.52405	231.36797	834.22278	-1645.50793	208.85791	831.6073	-1696.59485	239.59305	753.88458	-1681.93237	112.40106	1362.83337	-1291.1344	109.83344	1136.82605	-1228.3595	123.89227	1023.9715	-1223.22742	136.94977	887.72601	-1227.51111	162.64378	792.32324	-1268.66577	133.55779	788.11981	-1222.40637	150.12758	715.68262	-1232.90723	170.71494	937.09375	-1576.59546	184.78136	946.36493	-1340.13635	11.70776	962.59937	-1517.12219	22.0788	975.47284	-1369.23059	89.60833	633.18622	-1621.64282	74.27206	453.50232	-1600.84631	-77.86227	322.59485	-1590.05835	-216.50417	168.13274	-1543.34839	-262.94388	179.2932	-1502.40881	-153.85858	34.2315	-1500.91821	156.58209	653.28992	-1297.73108	192.18422	475.99124	-1338.76123	172.81845	287.58301	-1337.12024	178.24458	72.16019	-1387.42615	135.31636	40.28772	-1440.61377	319.76199	38.50153	-1398.70288	NaN	NaN	NaN	NaN	NaN	NaN	NaN	NaN	NaN	NaN	NaN	NaN	NaN	NaN	NaN	NaN	NaN	NaN	NaN	NaN	NaN	NaN	NaN	NaN
222	2.21	220.15559	1622.75623	-1493.97229	200.83649	1621.51453	-1362.03101	91.29548	1583.70703	-1508.80615	77.29156	1582.29858	-1378.19226	50.40628	1419.47449	-1454.36243	18.9856	1104.6449	-1454.60535	173.39816	1343.00305	-1448.88708	219.03546	1179.48132	-1458.91565	-3.67441	1240.46875	-1362.09448	135.23569	1383.64404	-1604.93555	137.453	1188.09351	-1677.41724	151.51782	1065.17163	-1687.89929	195.80659	942.99915	-1682.51306	233.28682	831.98712	-1646.09399	210.64531	830.08142	-1697.14136	239.05577	751.21521	-1682.46362	121.545	1363.08203	-1290.56494	119.93837	1137.1947	-1227.3363	134.40802	1024.45947	-1221.97473	148.59795	888.3233	-1226.28406	174.76883	793.35681	-1267.38428	145.60889	788.65717	-1220.89111	162.92046	716.4823	-1231.49463	178.81729	936.96191	-1576.12732	193.71481	946.29041	-1339.71497	19.75332	962.18768	-1516.17114	30.76125	976.01959	-1368.42664	101.71423	632.04175	-1623.05286	91.44769	452.21643	-1602.31885	-61.58003	323.72885	-1591.97351	-203.63773	173.31221	-1545.40771	-250.03874	187.5309	-1505.11011	-148.44676	37.06265	-1502.6416	162.41335	653.4881	-1297.33643	197.4592	475.85205	-1337.95776	175.95142	287.57547	-1336.57434	178.4514	72.0986	-1387.34705	135.16531	40.34583	-1440.45862	319.83118	38.39577	-1398.69128	NaN	NaN	NaN	NaN	NaN	NaN	NaN	NaN	NaN	NaN	NaN	NaN	NaN	NaN	NaN	NaN	NaN	NaN	NaN	NaN	NaN	NaN	NaN	NaN
223	2.22	228.60437	1622.90002	-1493.77515	209.49092	1621.65332	-1361.76111	99.7143	1583.75684	-1508.3916	85.93713	1582.33984	-1377.73059	58.95135	1419.35608	-1453.53003	27.56413	1104.62988	-1453.48169	181.95955	1343.0498	-1448.57349	227.4846	1179.35278	-1458.72693	5.29468	1240.3197	-1360.73767	143.23051	1383.44116	-1604.61194	144.49857	1187.63818	-1676.74304	157.63193	1064.60059	-1687.33655	199.7179	941.60486	-1682.55237	235.17941	829.65692	-1646.76086	212.15005	828.40521	-1697.74036	238.59302	748.55841	-1683.17529	130.79614	1363.0979	-1290.06445	129.96002	1137.38477	-1226.20679	144.85399	1024.7251	-1220.55237	160.07043	888.76727	-1224.78589	187.0934	793.9696	-1265.83752	157.79236	789.03064	-1219.61768	176.10559	717.10822	-1229.90833	186.5529	936.521	-1575.72742	202.43149	946.33124	-1339.35437	27.61035	961.42627	-1515.41101	39.22785	976.42883	-1367.66357	115.04907	630.95911	-1623.09961	108.81768	451.09174	-1603.56091	-44.76274	324.54721	-1594.03955	-191.00842	178.74823	-1546.59595	-236.80919	194.64209	-1506.87573	-139.58255	40.95845	-1505.39014	169.0273	653.5838	-1296.75525	202.71922	475.8364	-1337.24963	179.03194	287.56366	-1336.28088	178.45541	72.10512	-1387.35144	135.16209	40.29956	-1440.35303	319.89883	38.30061	-1398.70923	NaN	NaN	NaN	NaN	NaN	NaN	NaN	NaN	NaN	NaN	NaN	NaN	NaN	NaN	NaN	NaN	NaN	NaN	NaN	NaN	NaN	NaN	NaN	NaN
224	2.23	236.93913	1622.94421	-1493.57361	218.11772	1621.78284	-1361.56689	108.09264	1583.71704	-1507.99048	94.56318	1582.37659	-1377.26355	67.48173	1419.21558	-1452.69885	35.93107	1104.5791	-1452.52649	190.3685	1342.99475	-1448.43384	235.66818	1179.16553	-1458.58728	14.07825	1240.26892	-1359.48315	151.03352	1383.08215	-1604.41467	151.39095	1187.01038	-1676.13086	163.63329	1063.82495	-1686.78223	203.74106	940.07379	-1682.67688	237.07634	827.31653	-1647.51917	214.2527	826.85522	-1698.55432	238.23189	746.03101	-1684.00452	139.94693	1362.92834	-1289.62329	139.99533	1137.40112	-1225.10876	155.39128	1024.90442	-1218.98364	171.51321	889.00787	-1223.17017	198.72112	794.13916	-1264.1947	170.03783	789.34998	-1217.9259	188.95424	717.66449	-1227.96155	194.07791	935.98071	-1575.47815	210.92227	946.45215	-1338.97363	35.45927	960.43481	-1514.6344	47.40475	976.79419	-1367.04871	126.80768	630.08807	-1624.38306	126.51661	450.18317	-1604.61194	-27.59291	325.55325	-1595.64661	-177.39066	183.99419	-1548.01038	-223.25406	200.52556	-1507.66174	-127.52383	45.20513	-1509.00781	176.15651	654.06317	-1295.78418	207.76389	475.74921	-1336.66516	182.08902	287.54285	-1335.98511	178.62247	72.23932	-1387.52234	134.89958	40.26566	-1439.9668	319.9202	38.22564	-1398.74463	NaN	NaN	NaN	NaN	NaN	NaN	NaN	NaN	NaN	NaN	NaN	NaN	NaN	NaN	NaN	NaN	NaN	NaN	NaN	NaN	NaN	NaN	NaN	NaN
